# xmcd
#
# Track frame offsets:
#	150
#	17725
#	32440
#	50302
#	68462
#	83157
#	99155
#	121165
#	135985
#	155987
#
# Disc length: 2294 seconds
#
# Revision: 0
# Processed by: cddbd v1.4PL0 Copyright (c) Steve Scherf et al.
# Submitted via: EasyCDDAExtractor 4.5.0.2
#
DISCID=6d08f40a
DTITLE=J. B. Jones (aka BORT) - J. B. Jones
DYEAR=1900
DGENRE=Country
TTITLE0=Let's Just Be Friends
TTITLE1=Give Me A Clue
TTITLE2=Dead End Road
TTITLE3=One Day At A Time
TTITLE4=New Man
TTITLE5="L" out of Lover
TTITLE6=Turn The Lights Down
TTITLE7=Happy As A Man Can Be
TTITLE8=The Journey
TTITLE9=Don't You Worry
EXTD=
EXTT0=
EXTT1=
EXTT2=
EXTT3=
EXTT4=
EXTT5=
EXTT6=
EXTT7=
EXTT8=
EXTT9=
PLAYORDER=
